<svg width="23" height="23" viewBox="0 0 23 23" fill="none" xmlns="http://www.w3.org/2000/svg">
<path d="M21.7762 16.1955C21.7365 16.1625 17.2395 12.9585 16.0253 13.1588C15.4395 13.2623 15.105 13.662 14.4338 14.4615C14.3258 14.5905 14.0655 14.8988 13.8645 15.1185C13.4402 14.9803 13.0264 14.8119 12.6262 14.6145C10.5604 13.6088 8.89124 11.9396 7.8855 9.87375C7.68815 9.47356 7.51972 9.05975 7.3815 8.6355C7.602 8.43375 7.911 8.1735 8.043 8.0625C8.83875 7.395 9.23775 7.05975 9.34125 6.47325C9.5535 5.259 6.3375 0.7635 6.3045 0.723C6.15804 0.515292 5.9673 0.342693 5.74603 0.217663C5.52476 0.0926319 5.27849 0.0182888 5.025 0C3.7215 0 0 4.827 0 5.64075C0 5.688 0.0682501 10.491 5.991 16.5157C12.009 22.4317 16.812 22.5 16.8593 22.5C17.6723 22.5 22.5 18.7785 22.5 17.475C22.4815 17.2215 22.407 16.9752 22.2819 16.7539C22.1567 16.5327 21.984 16.342 21.7762 16.1955ZM16.776 20.9955C16.125 20.94 12.09 20.4083 7.05 15.4575C2.07525 10.3928 1.557 6.351 1.50525 5.72475C2.48833 4.18173 3.67559 2.77877 5.03475 1.554C5.06475 1.584 5.1045 1.629 5.1555 1.6875C6.19787 3.11042 7.09581 4.6337 7.836 6.23475C7.59529 6.4769 7.34088 6.70503 7.074 6.918C6.66014 7.23334 6.28011 7.59075 5.94 7.9845C5.88245 8.06525 5.84149 8.1566 5.81947 8.25328C5.79746 8.34996 5.79483 8.45005 5.81175 8.54775C5.97047 9.2353 6.21356 9.90059 6.5355 10.5285C7.68892 12.897 9.60282 14.8107 11.9715 15.9637C12.5993 16.2861 13.2646 16.5295 13.9523 16.6882C14.05 16.7052 14.15 16.7025 14.2467 16.6805C14.3434 16.6585 14.4348 16.6175 14.5155 16.56C14.9106 16.2185 15.2693 15.837 15.5858 15.4215C15.8213 15.141 16.1355 14.7668 16.2548 14.661C17.8599 15.4005 19.3865 16.2995 20.8118 17.3445C20.874 17.397 20.9183 17.4375 20.9475 17.4637C19.7227 18.8233 18.3194 20.0109 16.776 20.994V20.9955Z" fill="white"/>
<path d="M12 6C13.1931 6.00119 14.337 6.47568 15.1807 7.31933C16.0243 8.16299 16.4988 9.30689 16.5 10.5C16.5 10.6989 16.579 10.8897 16.7197 11.0303C16.8603 11.171 17.0511 11.25 17.25 11.25C17.4489 11.25 17.6397 11.171 17.7803 11.0303C17.921 10.8897 18 10.6989 18 10.5C17.9982 8.90925 17.3655 7.38416 16.2407 6.25933C15.1158 5.1345 13.5908 4.50179 12 4.5C11.8011 4.5 11.6103 4.57902 11.4697 4.71967C11.329 4.86032 11.25 5.05109 11.25 5.25C11.25 5.44891 11.329 5.63968 11.4697 5.78033C11.6103 5.92098 11.8011 6 12 6Z" fill="white"/>
<path d="M12 2.25C14.1872 2.25258 16.2842 3.1226 17.8308 4.66922C19.3774 6.21584 20.2474 8.31276 20.25 10.5C20.25 10.6989 20.329 10.8897 20.4697 11.0303C20.6103 11.171 20.8011 11.25 21 11.25C21.1989 11.25 21.3897 11.171 21.5303 11.0303C21.671 10.8897 21.75 10.6989 21.75 10.5C21.747 7.91505 20.7188 5.43683 18.891 3.609C17.0632 1.78116 14.5849 0.752977 12 0.75C11.8011 0.75 11.6103 0.829018 11.4697 0.96967C11.329 1.11032 11.25 1.30109 11.25 1.5C11.25 1.69891 11.329 1.88968 11.4697 2.03033C11.6103 2.17098 11.8011 2.25 12 2.25Z" fill="white"/>
</svg>
